<svg width="20" height="20" viewBox="0 0 20 20" fill="none" xmlns="http://www.w3.org/2000/svg">
<path fill-rule="evenodd" clip-rule="evenodd" d="M13.979 0H0V10H2V2H12V8H18V10H20V6.438L13.979 0ZM4 15.105C4 14.552 3.552 14.105 3 14.105H2V16.105H3C3.552 16.105 4 15.657 4 15.105V15.105ZM6 15C6 16.657 4.657 18 3 18H2V20H0V12H3C4.657 12 6 13.343 6 15V15ZM11 15.105C11 14.552 10.552 14 10 14H9V18H10C10.552 18 11 17.657 11 17.105V15.105ZM13 15V17C13 18.657 11.657 20 10 20H7V18.105V14.105V12H10C11.65 12 13 13.35 13 15V15ZM20 12V14H16V16H20V18H16V20H14V12H20Z" fill="#528DC5"/>
</svg>
